<?xml version="1.0" standalone="no"?>
<!DOCTYPE svg PUBLIC "-//W3C//DTD SVG 20010904//EN"
 "http://www.w3.org/TR/2001/REC-SVG-20010904/DTD/svg10.dtd">
<svg version="1.0" xmlns="http://www.w3.org/2000/svg"
 width="700.000000pt" height="700.000000pt" viewBox="0 0 700.000000 700.000000"
 preserveAspectRatio="xMidYMid meet">
<metadata>
Created by potrace 1.14, written by Peter Selinger 2001-2017
</metadata>
<g transform="translate(0.000000,700.000000) scale(0.100000,-0.100000)"
fill="#000000" stroke="none">
<path d="M1367 6681 c-8 -9 -126 -182 -262 -386 -137 -203 -326 -485 -420
-625 -602 -894 -602 -895 -614 -949 -26 -123 -8 -174 137 -379 142 -201 1206
-1701 1516 -2137 121 -170 240 -339 265 -375 25 -36 49 -69 54 -75 8 -10 470
-661 563 -795 149 -213 546 -769 569 -797 40 -49 142 -95 207 -94 70 1 112 14
168 52 43 29 163 190 464 623 28 39 54 76 58 81 5 6 34 46 65 90 174 246 992
1400 1244 1755 162 228 355 500 429 605 126 178 267 375 605 851 236 331 265
377 281 431 34 115 23 157 -87 355 -50 90 -105 188 -121 218 -17 30 -38 69
-48 85 -10 17 -30 53 -45 80 -59 107 -176 317 -262 470 -49 88 -105 187 -123
220 -18 33 -70 126 -116 208 -46 81 -84 149 -84 151 0 2 -23 43 -51 92 -54 95
-106 167 -159 224 l-33 35 -2093 1 c-1930 2 -2094 1 -2107 -15z m1463 -675 c0
-2 -104 -161 -231 -353 -127 -191 -254 -383 -282 -425 -28 -43 -54 -74 -58
-70 -4 4 -21 52 -39 107 -17 55 -34 107 -37 115 -3 8 -7 20 -9 25 -1 6 -39
120 -84 255 -45 135 -82 250 -84 255 -1 6 -4 15 -8 20 -3 6 -9 25 -13 43 l-7
32 426 0 c234 0 426 -2 426 -4z m2200 0 c0 -19 -464 -936 -470 -929 -13 14
-590 885 -590 891 0 3 -7 14 -17 24 -16 17 2 18 530 18 301 0 547 -2 547 -4z
m-1554 -338 c48 -73 117 -177 153 -231 36 -54 71 -105 76 -115 10 -17 60 -93
245 -373 l97 -145 -659 0 c-362 0 -658 1 -658 3 0 1 71 109 158 240 87 131
234 354 327 495 94 142 171 258 172 258 1 0 41 -60 89 -132z m2464 -859 c0 -3
-193 -5 -429 -5 -237 0 -429 2 -427 5 2 3 99 200 216 436 l212 430 214 -430
c117 -236 213 -433 214 -436z m-4316 422 c75 -228 136 -417 136 -420 0 -4
-191 -7 -425 -7 -234 0 -425 1 -425 3 0 14 565 852 570 846 5 -4 69 -194 144
-422z m408 -1216 c43 -148 80 -279 82 -290 3 -11 20 -74 39 -140 19 -66 37
-129 40 -140 7 -25 62 -219 87 -305 36 -123 162 -565 175 -615 38 -142 175
-617 180 -625 3 -6 3 -10 -2 -10 -4 1 -82 106 -173 235 -91 130 -173 245 -182
258 -9 12 -79 110 -155 217 -76 107 -181 255 -233 328 -52 73 -102 143 -110
156 -8 12 -96 136 -195 275 -99 139 -193 272 -209 295 -67 96 -324 458 -383
538 -35 48 -63 89 -63 91 0 1 230 3 512 2 l512 0 78 -270z m2178 268 c0 -2
-33 -122 -74 -266 -41 -144 -127 -446 -191 -672 -64 -225 -159 -561 -212 -745
-52 -184 -97 -342 -98 -350 -13 -54 -242 -850 -246 -854 -3 -3 -46 140 -96
317 -51 177 -153 538 -228 802 -75 264 -143 503 -150 530 -16 57 -109 384
-131 460 -8 28 -17 59 -19 70 -3 11 -49 174 -103 363 -54 188 -97 344 -95 345
4 4 1643 4 1643 0z m1623 -9 c-1 -7 -35 -58 -76 -115 -41 -57 -122 -171 -180
-254 -59 -82 -113 -159 -121 -170 -12 -16 -233 -327 -451 -635 -17 -25 -94
-133 -170 -240 -76 -107 -158 -224 -183 -260 -25 -36 -62 -87 -82 -115 -20
-27 -52 -72 -72 -100 -185 -265 -351 -495 -354 -493 -1 2 24 98 57 213 33 116
71 248 84 295 13 47 33 119 45 160 12 41 28 98 35 125 7 28 36 129 63 225 53
183 262 920 333 1170 22 80 45 159 50 176 l9 30 508 0 c372 -1 506 -4 505 -12z"/>
</g>
</svg>
